<?xml version="1.0" encoding="UTF-8" standalone="no"?>
<!-- Created with Inkscape (http://www.inkscape.org/) -->

<svg
   xmlns:osb="http://www.openswatchbook.org/uri/2009/osb"
   xmlns:dc="http://purl.org/dc/elements/1.1/"
   xmlns:cc="http://creativecommons.org/ns#"
   xmlns:rdf="http://www.w3.org/1999/02/22-rdf-syntax-ns#"
   xmlns:svg="http://www.w3.org/2000/svg"
   xmlns="http://www.w3.org/2000/svg"
   xmlns:xlink="http://www.w3.org/1999/xlink"
   xmlns:sodipodi="http://sodipodi.sourceforge.net/DTD/sodipodi-0.dtd"
   xmlns:inkscape="http://www.inkscape.org/namespaces/inkscape"
   width="200"
   height="200"
   id="svg2"
   version="1.1"
   inkscape:version="0.48.3.1 r9886"
   sodipodi:docname="controller.svg"
   enable-background="new"
   inkscape:export-filename="/home/robert/Bilder/controller/z.png"
   inkscape:export-xdpi="135"
   inkscape:export-ydpi="135">
  <defs
     id="defs4">
    <linearGradient
       id="linearGradient5626">
      <stop
         style="stop-color:#a1a1a1;stop-opacity:1;"
         offset="0"
         id="stop5628" />
      <stop
         style="stop-color:#000000;stop-opacity:1;"
         offset="1"
         id="stop5630" />
    </linearGradient>
    <linearGradient
       id="linearGradient5405">
      <stop
         style="stop-color:#232323;stop-opacity:1;"
         offset="0"
         id="stop5407" />
      <stop
         style="stop-color:#090909;stop-opacity:1;"
         offset="1"
         id="stop5409" />
    </linearGradient>
    <linearGradient
       inkscape:collect="always"
       id="linearGradient3921"
       osb:paint="gradient">
      <stop
         style="stop-color:#000000;stop-opacity:1;"
         offset="0"
         id="stop3923" />
      <stop
         style="stop-color:#000000;stop-opacity:0;"
         offset="1"
         id="stop3925" />
    </linearGradient>
    <radialGradient
       inkscape:collect="always"
       xlink:href="#linearGradient5405-1"
       id="radialGradient5413-9"
       cx="60.947273"
       cy="90.475555"
       fx="60.947273"
       fy="90.475555"
       r="97.633514"
       gradientTransform="matrix(0.87135931,0.94058741,-1.8006414,1.6681126,235.07545,-172.78336)"
       gradientUnits="userSpaceOnUse" />
    <linearGradient
       id="linearGradient5405-1">
      <stop
         style="stop-color:#181818;stop-opacity:1;"
         offset="0"
         id="stop5407-5" />
      <stop
         style="stop-color:#000000;stop-opacity:1;"
         offset="1"
         id="stop5409-8" />
    </linearGradient>
    <linearGradient
       inkscape:collect="always"
       xlink:href="#linearGradient5405"
       id="linearGradient5486"
       gradientUnits="userSpaceOnUse"
       x1="100.36078"
       y1="1052.4987"
       x2="100.36078"
       y2="851.32666"
       gradientTransform="translate(-1.2626907,-852.36218)" />
    <radialGradient
       inkscape:collect="always"
       xlink:href="#linearGradient5626"
       id="radialGradient5632"
       cx="99.87883"
       cy="106.43462"
       fx="99.87883"
       fy="106.43462"
       r="14.015866"
       gradientUnits="userSpaceOnUse"
       gradientTransform="matrix(1.4601444,0,0,1.4601444,-45.958682,-48.975294)" />
  </defs>
  <sodipodi:namedview
     id="base"
     pagecolor="#000000"
     bordercolor="#666666"
     borderopacity="1.0"
     inkscape:pageopacity="0"
     inkscape:pageshadow="2"
     inkscape:zoom="2.8"
     inkscape:cx="69.572648"
     inkscape:cy="95.9622"
     inkscape:document-units="px"
     inkscape:current-layer="layer6"
     showgrid="false"
     inkscape:window-width="1600"
     inkscape:window-height="851"
     inkscape:window-x="0"
     inkscape:window-y="0"
     inkscape:window-maximized="1" />
  <metadata
     id="metadata7">
    <rdf:RDF>
      <cc:Work
         rdf:about="">
        <dc:format>image/svg+xml</dc:format>
        <dc:type
           rdf:resource="http://purl.org/dc/dcmitype/StillImage" />
        <dc:title></dc:title>
      </cc:Work>
    </rdf:RDF>
  </metadata>
  <g
     inkscape:label="Layer 1"
     inkscape:groupmode="layer"
     id="layer1"
     transform="translate(0,-852.36218)"
     style="display:none">
    <image
       y="855.55701"
       x="-1.2626907"
       id="image3082"
       xlink:href="file:///media/Windows/Users/Robert_2/InputDisplay/controller.bmp"
       height="194.80519"
       width="200"
       mask="none" />
  </g>
  <g
     inkscape:groupmode="layer"
     id="layer2"
     inkscape:label="Controller"
     style="display:inline">
    <path
       id="path5451"
       style="fill:url(#linearGradient5486);fill-opacity:1;fill-rule:nonzero;stroke:none;display:inline"
       d="m 99.737304,6.80833 0,189.65619 c 8.776236,0 15.221616,-5.1985 28.087306,-86.57083 1.47274,-9.31474 14.58558,-9.95865 29.85497,-10.02506 9.3256,20.07023 12.2416,56.14149 22.34965,56.18969 21.21898,0.1014 19.68361,-71.81372 14.64722,-85.98919 0.54971,-40.81784 -30.55714,-48.48732 -53.66439,-48.23478 0,-16.33841 -30.11877,-15.02602 -41.274756,-15.02602 z m 0,0 0,189.65619 c -8.776225,0 -15.221604,-5.1985 -28.087284,-86.57083 C 70.177277,100.57895 57.064455,99.93504 41.795062,99.86863 32.469479,119.93886 29.553479,156.01012 19.445437,156.05832 -1.7735371,156.15962 -0.2381618,84.2446 4.7982248,70.06913 4.2485182,29.25129 35.35534,21.58181 58.462579,21.83434 c 0,-16.3384 30.118746,-15.02601 41.274725,-15.02601 z"
       inkscape:connector-curvature="0"
       inkscape:export-filename="/home/robert/Bilder/controller.png"
       inkscape:export-xdpi="32.650002"
       inkscape:export-ydpi="32.650002" />
  </g>
  <g
     inkscape:groupmode="layer"
     id="layer7"
     inkscape:label="Stick_bg">
    <path
       sodipodi:type="arc"
       style="fill:#000000;fill-opacity:1;fill-rule:nonzero;stroke:none"
       id="path5621"
       sodipodi:cx="100.25764"
       sodipodi:cy="103.02535"
       sodipodi:rx="12.121831"
       sodipodi:ry="12.121831"
       d="m 112.37947,103.02535 a 12.121831,12.121831 0 1 1 -24.243664,0 12.121831,12.121831 0 1 1 24.243664,0 z"
       transform="matrix(1.1875,0,0,1.1875,-18.987712,-15.317253)" />
  </g>
  <g
     inkscape:groupmode="layer"
     id="layer8"
     inkscape:label="Stick"
     style="display:inline">
    <path
       sodipodi:type="arc"
       style="fill:url(#radialGradient5632);fill-opacity:1.0;fill-rule:nonzero;stroke:none"
       id="path5624"
       sodipodi:cx="99.87883"
       sodipodi:cy="106.43462"
       sodipodi:rx="14.015866"
       sodipodi:ry="14.015866"
       d="m 113.8947,106.43462 a 14.015866,14.015866 0 1 1 -28.031736,0 14.015866,14.015866 0 1 1 28.031736,0 z"
       transform="matrix(0.54954954,0,0,0.54954954,45.179869,48.511736)" />
  </g>
  <g
     inkscape:groupmode="layer"
     id="layer3"
     inkscape:label="A"
     style="display:inline">
    <path
       sodipodi:type="arc"
       style="fill:#202e60;fill-opacity:1;fill-rule:nonzero;stroke:none"
       id="path5493"
       sodipodi:cx="156.06857"
       sodipodi:cy="84.337532"
       sodipodi:rx="6.5659914"
       sodipodi:ry="6.5659914"
       d="m 162.63456,84.337532 a 6.5659914,6.5659914 0 1 1 -13.13198,0 6.5659914,6.5659914 0 1 1 13.13198,0 z"
       transform="matrix(1.1923077,0,0,1.1923077,-34.053798,-21.269519)" />
  </g>
  <g
     inkscape:label="B"
     id="g5495"
     inkscape:groupmode="layer"
     style="display:inline">
    <path
       transform="matrix(1.1923077,0,0,1.1923077,-48.953548,-35.664193)"
       d="m 162.63456,84.337532 a 6.5659914,6.5659914 0 1 1 -13.13198,0 6.5659914,6.5659914 0 1 1 13.13198,0 z"
       sodipodi:ry="6.5659914"
       sodipodi:rx="6.5659914"
       sodipodi:cy="84.337532"
       sodipodi:cx="156.06857"
       id="path5497"
       style="fill:#236020;fill-opacity:1;fill-rule:nonzero;stroke:none"
       sodipodi:type="arc" />
  </g>
  <g
     inkscape:groupmode="layer"
     id="g5499"
     inkscape:label="C-up"
     style="display:inline">
    <path
       sodipodi:type="arc"
       style="fill:#5f6020;fill-opacity:1;fill-rule:nonzero;stroke:none"
       id="path5501"
       sodipodi:cx="156.06857"
       sodipodi:cy="84.337532"
       sodipodi:rx="6.5659914"
       sodipodi:ry="6.5659914"
       d="m 162.63456,84.337532 a 6.5659914,6.5659914 0 1 1 -13.13198,0 6.5659914,6.5659914 0 1 1 13.13198,0 z"
       transform="translate(9.5964494,-42.173868)" />
  </g>
  <g
     inkscape:label="C-right"
     id="g5503"
     inkscape:groupmode="layer"
     style="display:inline">
    <path
       transform="translate(21.213204,-30.809652)"
       d="m 162.63456,84.337532 a 6.5659914,6.5659914 0 1 1 -13.13198,0 6.5659914,6.5659914 0 1 1 13.13198,0 z"
       sodipodi:ry="6.5659914"
       sodipodi:rx="6.5659914"
       sodipodi:cy="84.337532"
       sodipodi:cx="156.06857"
       id="path5505"
       style="fill:#5f6020;fill-opacity:1;fill-rule:nonzero;stroke:none"
       sodipodi:type="arc" />
  </g>
  <g
     inkscape:groupmode="layer"
     id="g5507"
     inkscape:label="C-down"
     style="display:inline">
    <path
       sodipodi:type="arc"
       style="fill:#5f6020;fill-opacity:1;fill-rule:nonzero;stroke:none"
       id="path5509"
       sodipodi:cx="156.06857"
       sodipodi:cy="84.337532"
       sodipodi:rx="6.5659914"
       sodipodi:ry="6.5659914"
       d="m 162.63456,84.337532 a 6.5659914,6.5659914 0 1 1 -13.13198,0 6.5659914,6.5659914 0 1 1 13.13198,0 z"
       transform="translate(10.354064,-19.697974)" />
  </g>
  <g
     inkscape:label="C-left"
     id="g5511"
     inkscape:groupmode="layer"
     style="display:inline">
    <path
       transform="translate(-1.2626903,-30.809652)"
       d="m 162.63456,84.337532 a 6.5659914,6.5659914 0 1 1 -13.13198,0 6.5659914,6.5659914 0 1 1 13.13198,0 z"
       sodipodi:ry="6.5659914"
       sodipodi:rx="6.5659914"
       sodipodi:cy="84.337532"
       sodipodi:cx="156.06857"
       id="path5513"
       style="fill:#5f6020;fill-opacity:1;fill-rule:nonzero;stroke:none"
       sodipodi:type="arc" />
  </g>
  <g
     inkscape:groupmode="layer"
     id="g5527"
     inkscape:label="Start"
     style="display:inline">
    <path
       sodipodi:type="arc"
       style="fill:#602220;fill-opacity:1;fill-rule:nonzero;stroke:none"
       id="path5529"
       sodipodi:cx="156.06857"
       sodipodi:cy="84.337532"
       sodipodi:rx="6.5659914"
       sodipodi:ry="6.5659914"
       d="m 162.63456,84.337532 a 6.5659914,6.5659914 0 1 1 -13.13198,0 6.5659914,6.5659914 0 1 1 13.13198,0 z"
       transform="matrix(1.1538462,0,0,1.1538462,-80.326554,-30.652674)" />
  </g>
  <g
     inkscape:groupmode="layer"
     id="layer4"
     inkscape:label="D-up"
     style="display:inline">
    <path
       style="fill:#404040;fill-opacity:1;stroke:none"
       d="m 31.936361,52.15511 5.782476,-9.738907 5.782475,9.738907 z"
       id="path5538"
       inkscape:connector-curvature="0" />
  </g>
  <g
     inkscape:label="D-right"
     id="g5540"
     inkscape:groupmode="layer"
     style="display:inline">
    <path
       inkscape:connector-curvature="0"
       id="path5542"
       d="m 45.783869,54.665921 9.738907,5.782477 -9.738907,5.782475 z"
       style="fill:#404040;fill-opacity:1;stroke:none" />
  </g>
  <g
     inkscape:groupmode="layer"
     id="g5544"
     inkscape:label="D-down"
     style="display:inline">
    <path
       style="fill:#404040;fill-opacity:1;stroke:none"
       d="M 42.968717,68.285173 37.186241,78.02408 31.403766,68.285173 z"
       id="path5546"
       inkscape:connector-curvature="0" />
  </g>
  <g
     inkscape:label="D-left"
     id="g5548"
     inkscape:groupmode="layer"
     style="display:inline">
    <path
       inkscape:connector-curvature="0"
       id="path5550"
       d="M 29.121209,66.078701 19.382302,60.296225 29.121209,54.51375 z"
       style="fill:#404040;fill-opacity:1;stroke:none" />
  </g>
  <g
     inkscape:groupmode="layer"
     id="layer5"
     inkscape:label="L"
     style="display:inline">
    <path
       style="fill:#404040;fill-opacity:1;stroke:none"
       d="m 57.831233,24.991071 0.252538,-4.798224 c 0,0 -22.98097,1.515229 -38.385796,10.354063 l 0,4.040611 c 17.172593,-8.081221 38.133258,-9.59645 38.133258,-9.59645 z"
       id="path5555"
       inkscape:connector-curvature="0"
       sodipodi:nodetypes="ccccc" />
  </g>
  <g
     inkscape:label="R"
     id="g5557"
     inkscape:groupmode="layer"
     style="display:inline">
    <path
       sodipodi:nodetypes="ccccc"
       inkscape:connector-curvature="0"
       id="path5559"
       d="m 140.40788,24.991071 -0.24921,-4.798224 c 0,0 22.67859,1.515229 37.88072,10.354063 l 0,4.040611 c -16.94664,-8.081221 -37.63151,-9.59645 -37.63151,-9.59645 z"
       style="fill:#404040;fill-opacity:1;stroke:none" />
  </g>
  <g
     inkscape:label="A_highlight"
     id="g5566"
     inkscape:groupmode="layer"
     style="display:inline">
    <path
       transform="matrix(1.1923077,0,0,1.1923077,-34.053798,-21.269519)"
       d="m 162.63456,84.337532 a 6.5659914,6.5659914 0 1 1 -13.13198,0 6.5659914,6.5659914 0 1 1 13.13198,0 z"
       sodipodi:ry="6.5659914"
       sodipodi:rx="6.5659914"
       sodipodi:cy="84.337532"
       sodipodi:cx="156.06857"
       id="path5568"
       style="fill:#436bff;fill-opacity:1;fill-rule:nonzero;stroke:none"
       sodipodi:type="arc" />
  </g>
  <g
     inkscape:groupmode="layer"
     id="g5570"
     inkscape:label="B_highlight"
     style="display:inline">
    <path
       sodipodi:type="arc"
       style="fill:#4bff43;fill-opacity:1;fill-rule:nonzero;stroke:none"
       id="path5572"
       sodipodi:cx="156.06857"
       sodipodi:cy="84.337532"
       sodipodi:rx="6.5659914"
       sodipodi:ry="6.5659914"
       d="m 162.63456,84.337532 a 6.5659914,6.5659914 0 1 1 -13.13198,0 6.5659914,6.5659914 0 1 1 13.13198,0 z"
       transform="matrix(1.1923077,0,0,1.1923077,-48.953548,-35.664193)" />
  </g>
  <g
     inkscape:label="C-up_highlight"
     id="g5576"
     inkscape:groupmode="layer"
     style="display:inline">
    <path
       transform="translate(9.5964494,-42.173868)"
       d="m 162.63456,84.337532 a 6.5659914,6.5659914 0 1 1 -13.13198,0 6.5659914,6.5659914 0 1 1 13.13198,0 z"
       sodipodi:ry="6.5659914"
       sodipodi:rx="6.5659914"
       sodipodi:cy="84.337532"
       sodipodi:cx="156.06857"
       id="path5578"
       style="fill:#fcff43;fill-opacity:1;fill-rule:nonzero;stroke:none"
       sodipodi:type="arc" />
  </g>
  <g
     inkscape:groupmode="layer"
     id="g5580"
     inkscape:label="C-right_highlight"
     style="display:inline">
    <path
       sodipodi:type="arc"
       style="fill:#fcff43;fill-opacity:1;fill-rule:nonzero;stroke:none"
       id="path5582"
       sodipodi:cx="156.06857"
       sodipodi:cy="84.337532"
       sodipodi:rx="6.5659914"
       sodipodi:ry="6.5659914"
       d="m 162.63456,84.337532 a 6.5659914,6.5659914 0 1 1 -13.13198,0 6.5659914,6.5659914 0 1 1 13.13198,0 z"
       transform="translate(21.213204,-30.809652)" />
  </g>
  <g
     inkscape:label="C-down_highlight"
     id="g5584"
     inkscape:groupmode="layer"
     style="display:inline">
    <path
       transform="translate(10.354064,-19.697974)"
       d="m 162.63456,84.337532 a 6.5659914,6.5659914 0 1 1 -13.13198,0 6.5659914,6.5659914 0 1 1 13.13198,0 z"
       sodipodi:ry="6.5659914"
       sodipodi:rx="6.5659914"
       sodipodi:cy="84.337532"
       sodipodi:cx="156.06857"
       id="path5586"
       style="fill:#fcff43;fill-opacity:1;fill-rule:nonzero;stroke:none"
       sodipodi:type="arc" />
  </g>
  <g
     inkscape:groupmode="layer"
     id="g5588"
     inkscape:label="C-left_highlight"
     style="display:inline">
    <path
       sodipodi:type="arc"
       style="fill:#fdff43;fill-opacity:1;fill-rule:nonzero;stroke:none"
       id="path5590"
       sodipodi:cx="156.06857"
       sodipodi:cy="84.337532"
       sodipodi:rx="6.5659914"
       sodipodi:ry="6.5659914"
       d="m 162.63456,84.337532 a 6.5659914,6.5659914 0 1 1 -13.13198,0 6.5659914,6.5659914 0 1 1 13.13198,0 z"
       transform="translate(-1.2626903,-30.809652)" />
  </g>
  <g
     inkscape:label="Start_highlight"
     id="g5592"
     inkscape:groupmode="layer"
     style="display:inline">
    <path
       transform="matrix(1.1538462,0,0,1.1538462,-80.326554,-30.652674)"
       d="m 162.63456,84.337532 a 6.5659914,6.5659914 0 1 1 -13.13198,0 6.5659914,6.5659914 0 1 1 13.13198,0 z"
       sodipodi:ry="6.5659914"
       sodipodi:rx="6.5659914"
       sodipodi:cy="84.337532"
       sodipodi:cx="156.06857"
       id="path5594"
       style="fill:#ff4c43;fill-opacity:1;fill-rule:nonzero;stroke:none"
       sodipodi:type="arc" />
  </g>
  <g
     inkscape:label="D-up_highlight"
     id="g5596"
     inkscape:groupmode="layer"
     style="display:inline">
    <path
       inkscape:connector-curvature="0"
       id="path5598"
       d="m 31.936361,52.15511 5.782476,-9.738907 5.782475,9.738907 z"
       style="fill:#a1a1a1;fill-opacity:1;stroke:none" />
  </g>
  <g
     inkscape:groupmode="layer"
     id="g5600"
     inkscape:label="D-right_highlight"
     style="display:inline">
    <path
       style="fill:#a1a1a1;fill-opacity:1;stroke:none"
       d="m 45.783869,54.665921 9.738907,5.782477 -9.738907,5.782475 z"
       id="path5602"
       inkscape:connector-curvature="0" />
  </g>
  <g
     inkscape:label="D-down_highlight"
     id="g5604"
     inkscape:groupmode="layer"
     style="display:inline">
    <path
       inkscape:connector-curvature="0"
       id="path5606"
       d="M 42.968717,68.285173 37.186241,78.02408 31.403766,68.285173 z"
       style="fill:#a1a1a1;fill-opacity:1;stroke:none" />
  </g>
  <g
     inkscape:groupmode="layer"
     id="g5608"
     inkscape:label="D-left_highlight"
     style="display:inline">
    <path
       style="fill:#a1a1a1;fill-opacity:1;stroke:none"
       d="M 29.121209,66.078701 19.382302,60.296225 29.121209,54.51375 z"
       id="path5610"
       inkscape:connector-curvature="0" />
  </g>
  <g
     inkscape:label="L_highlight"
     id="g5612"
     inkscape:groupmode="layer"
     style="display:inline">
    <path
       sodipodi:nodetypes="ccccc"
       inkscape:connector-curvature="0"
       id="path5614"
       d="m 57.831233,24.991071 0.252538,-4.798224 c 0,0 -22.98097,1.515229 -38.385796,10.354063 l 0,4.040611 c 17.172593,-8.081221 38.133258,-9.59645 38.133258,-9.59645 z"
       style="fill:#a1a1a1;fill-opacity:1;stroke:none" />
  </g>
  <g
     inkscape:groupmode="layer"
     id="g5616"
     inkscape:label="R_highlight"
     style="display:inline">
    <path
       style="fill:#a1a1a1;fill-opacity:1;stroke:none"
       d="m 140.40788,24.991071 -0.24921,-4.798224 c 0,0 22.67859,1.515229 37.88072,10.354063 l 0,4.040611 c -16.94664,-8.081221 -37.63151,-9.59645 -37.63151,-9.59645 z"
       id="path5618"
       inkscape:connector-curvature="0"
       sodipodi:nodetypes="ccccc" />
  </g>
  <g
     inkscape:groupmode="layer"
     id="layer6"
     inkscape:label="Z_highlight"
     style="display:inline">
    <path
       style="fill:#a1a1a1;fill-opacity:1;stroke:none"
       d="m 71.339286,108.44643 3.839286,23.125 -8.035715,-11.78572 z"
       id="path5562"
       inkscape:connector-curvature="0"
       sodipodi:nodetypes="cccc" />
    <path
       style="fill:#a1a1a1;fill-opacity:1;stroke:none"
       d="m 128.30358,107.58929 -3.8393,23.125 8.39286,-11.875 z"
       id="path5564"
       inkscape:connector-curvature="0"
       sodipodi:nodetypes="cccc" />
  </g>
</svg>
