<?xml version="1.0" encoding="UTF-8" standalone="no"?>
<!-- Created with Inkscape (http://www.inkscape.org/) -->

<svg
   xmlns:dc="http://purl.org/dc/elements/1.1/"
   xmlns:cc="http://creativecommons.org/ns#"
   xmlns:rdf="http://www.w3.org/1999/02/22-rdf-syntax-ns#"
   xmlns:svg="http://www.w3.org/2000/svg"
   xmlns="http://www.w3.org/2000/svg"
   xmlns:xlink="http://www.w3.org/1999/xlink"
   version="1.1"
   width="200"
   height="200"
   id="svg2">
  <defs
     id="defs4">
    <linearGradient
       id="linearGradient5626">
      <stop
         id="stop5628"
         style="stop-color:#a1a1a1;stop-opacity:1"
         offset="0" />
      <stop
         id="stop5630"
         style="stop-color:#000000;stop-opacity:1"
         offset="1" />
    </linearGradient>
    <linearGradient
       id="linearGradient5405">
      <stop
         id="stop5407"
         style="stop-color:#232323;stop-opacity:1"
         offset="0" />
      <stop
         id="stop5409"
         style="stop-color:#090909;stop-opacity:1"
         offset="1" />
    </linearGradient>
    <linearGradient
       id="linearGradient3921">
      <stop
         id="stop3923"
         style="stop-color:#000000;stop-opacity:1"
         offset="0" />
      <stop
         id="stop3925"
         style="stop-color:#000000;stop-opacity:0"
         offset="1" />
    </linearGradient>
    <linearGradient
       x1="100.36078"
       y1="1052.4987"
       x2="100.36078"
       y2="851.32666"
       id="linearGradient5486"
       xlink:href="#linearGradient5405"
       gradientUnits="userSpaceOnUse"
       gradientTransform="translate(-1.2626907,-852.36218)" />
    <radialGradient
       cx="99.87883"
       cy="106.43462"
       r="14.015866"
       fx="99.87883"
       fy="106.43462"
       id="radialGradient5632"
       xlink:href="#linearGradient5626"
       gradientUnits="userSpaceOnUse"
       gradientTransform="matrix(1.4601444,0,0,1.4601444,-45.958682,-48.975294)" />
  </defs>
  <metadata
     id="metadata7">
    <rdf:RDF>
      <cc:Work
         rdf:about="">
        <dc:format>image/svg+xml</dc:format>
        <dc:type
           rdf:resource="http://purl.org/dc/dcmitype/StillImage" />
        <dc:title></dc:title>
      </cc:Work>
    </rdf:RDF>
  </metadata>
  <g
     transform="translate(0,-852.36218)"
     id="layer1"
     style="display:inline" />
  <g
     id="layer2"
     style="display:inline">
    <path
       d="m 99.737304,6.80833 0,189.65619 c 8.776236,0 15.221616,-5.1985 28.087306,-86.57083 1.47274,-9.31474 14.58558,-9.95865 29.85497,-10.02506 9.3256,20.07023 12.2416,56.14149 22.34965,56.18969 21.21898,0.1014 19.68361,-71.81372 14.64722,-85.98919 0.54971,-40.81784 -30.55714,-48.48732 -53.66439,-48.23478 0,-16.33841 -30.11877,-15.02602 -41.274756,-15.02602 z m 0,0 0,189.65619 c -8.776225,0 -15.221604,-5.1985 -28.087284,-86.57083 C 70.177277,100.57895 57.064455,99.93504 41.795062,99.86863 32.469479,119.93886 29.553479,156.01012 19.445437,156.05832 -1.7735371,156.15962 -0.2381618,84.2446 4.7982248,70.06913 4.2485182,29.25129 35.35534,21.58181 58.462579,21.83434 c 0,-16.3384 30.118746,-15.02601 41.274725,-15.02601 z"
       id="path5451"
       style="fill:url(#linearGradient5486);fill-opacity:1;fill-rule:nonzero;stroke:none;display:inline" />
  </g>
  <g
     id="layer7">
    <path
       d="m 112.37947,103.02535 a 12.121831,12.121831 0 1 1 -24.243664,0 12.121831,12.121831 0 1 1 24.243664,0 z"
       transform="matrix(1.1875,0,0,1.1875,-18.987712,-15.317253)"
       id="path5621"
       style="fill:#000000;fill-opacity:1;fill-rule:nonzero;stroke:none" />
  </g>
  <g
     id="layer8"
     style="display:inline">
    <path
       d="m 113.8947,106.43462 a 14.015866,14.015866 0 1 1 -28.031736,0 14.015866,14.015866 0 1 1 28.031736,0 z"
       transform="matrix(0.54954954,0,0,0.54954954,45.179869,48.511736)"
       id="path5624"
       style="fill:url(#radialGradient5632);fill-opacity:1;fill-rule:nonzero;stroke:none" />
  </g>
  <g
     id="layer3"
     style="display:inline">
    <path
       d="m 162.63456,84.337532 a 6.5659914,6.5659914 0 1 1 -13.13198,0 6.5659914,6.5659914 0 1 1 13.13198,0 z"
       transform="matrix(1.1923077,0,0,1.1923077,-34.053798,-21.269519)"
       id="path5493"
       style="fill:#202e60;fill-opacity:1;fill-rule:nonzero;stroke:none" />
  </g>
  <g
     id="g5495"
     style="display:inline">
    <path
       d="m 162.63456,84.337532 a 6.5659914,6.5659914 0 1 1 -13.13198,0 6.5659914,6.5659914 0 1 1 13.13198,0 z"
       transform="matrix(1.1923077,0,0,1.1923077,-48.953548,-35.664193)"
       id="path5497"
       style="fill:#236020;fill-opacity:1;fill-rule:nonzero;stroke:none" />
  </g>
  <g
     id="g5499"
     style="display:inline">
    <path
       d="m 162.63456,84.337532 a 6.5659914,6.5659914 0 1 1 -13.13198,0 6.5659914,6.5659914 0 1 1 13.13198,0 z"
       transform="translate(9.5964494,-42.173868)"
       id="path5501"
       style="fill:#5f6020;fill-opacity:1;fill-rule:nonzero;stroke:none" />
  </g>
  <g
     id="g5503"
     style="display:inline">
    <path
       d="m 162.63456,84.337532 a 6.5659914,6.5659914 0 1 1 -13.13198,0 6.5659914,6.5659914 0 1 1 13.13198,0 z"
       transform="translate(21.213204,-30.809652)"
       id="path5505"
       style="fill:#5f6020;fill-opacity:1;fill-rule:nonzero;stroke:none" />
  </g>
  <g
     id="g5507"
     style="display:inline">
    <path
       d="m 162.63456,84.337532 a 6.5659914,6.5659914 0 1 1 -13.13198,0 6.5659914,6.5659914 0 1 1 13.13198,0 z"
       transform="translate(10.354064,-19.697974)"
       id="path5509"
       style="fill:#5f6020;fill-opacity:1;fill-rule:nonzero;stroke:none" />
  </g>
  <g
     id="g5511"
     style="display:inline">
    <path
       d="m 162.63456,84.337532 a 6.5659914,6.5659914 0 1 1 -13.13198,0 6.5659914,6.5659914 0 1 1 13.13198,0 z"
       transform="translate(-1.2626903,-30.809652)"
       id="path5513"
       style="fill:#5f6020;fill-opacity:1;fill-rule:nonzero;stroke:none" />
  </g>
  <g
     id="g5527"
     style="display:inline">
    <path
       d="m 162.63456,84.337532 a 6.5659914,6.5659914 0 1 1 -13.13198,0 6.5659914,6.5659914 0 1 1 13.13198,0 z"
       transform="matrix(1.1538462,0,0,1.1538462,-80.326554,-30.652674)"
       id="path5529"
       style="fill:#602220;fill-opacity:1;fill-rule:nonzero;stroke:none" />
  </g>
  <g
     id="layer4"
     style="display:inline">
    <path
       d="m 31.936361,52.15511 5.782476,-9.738907 5.782475,9.738907 z"
       id="path5538"
       style="fill:#404040;fill-opacity:1;stroke:none" />
  </g>
  <g
     id="g5540"
     style="display:inline">
    <path
       d="m 45.783869,54.665921 9.738907,5.782477 -9.738907,5.782475 z"
       id="path5542"
       style="fill:#404040;fill-opacity:1;stroke:none" />
  </g>
  <g
     id="g5544"
     style="display:inline">
    <path
       d="M 42.968717,68.285173 37.186241,78.02408 31.403766,68.285173 z"
       id="path5546"
       style="fill:#404040;fill-opacity:1;stroke:none" />
  </g>
  <g
     id="g5548"
     style="display:inline">
    <path
       d="M 29.121209,66.078701 19.382302,60.296225 29.121209,54.51375 z"
       id="path5550"
       style="fill:#404040;fill-opacity:1;stroke:none" />
  </g>
  <g
     id="layer5"
     style="display:inline">
    <path
       d="m 57.831233,24.991071 0.252538,-4.798224 c 0,0 -22.98097,1.515229 -38.385796,10.354063 l 0,4.040611 c 17.172593,-8.081221 38.133258,-9.59645 38.133258,-9.59645 z"
       id="path5555"
       style="fill:#404040;fill-opacity:1;stroke:none" />
  </g>
  <g
     id="g5557"
     style="display:inline">
    <path
       d="m 140.40788,24.991071 -0.24921,-4.798224 c 0,0 22.67859,1.515229 37.88072,10.354063 l 0,4.040611 c -16.94664,-8.081221 -37.63151,-9.59645 -37.63151,-9.59645 z"
       id="path5559"
       style="fill:#404040;fill-opacity:1;stroke:none" />
  </g>
  <g
     id="g5566"
     style="display:inline">
    <path
       d="m 162.63456,84.337532 a 6.5659914,6.5659914 0 1 1 -13.13198,0 6.5659914,6.5659914 0 1 1 13.13198,0 z"
       transform="matrix(1.1923077,0,0,1.1923077,-34.053798,-21.269519)"
       id="path5568"
       style="fill:#436bff;fill-opacity:1;fill-rule:nonzero;stroke:none" />
  </g>
  <g
     id="g5570"
     style="display:inline">
    <path
       d="m 162.63456,84.337532 a 6.5659914,6.5659914 0 1 1 -13.13198,0 6.5659914,6.5659914 0 1 1 13.13198,0 z"
       transform="matrix(1.1923077,0,0,1.1923077,-48.953548,-35.664193)"
       id="path5572"
       style="fill:#4bff43;fill-opacity:1;fill-rule:nonzero;stroke:none" />
  </g>
  <g
     id="g5576"
     style="display:inline">
    <path
       d="m 162.63456,84.337532 a 6.5659914,6.5659914 0 1 1 -13.13198,0 6.5659914,6.5659914 0 1 1 13.13198,0 z"
       transform="translate(9.5964494,-42.173868)"
       id="path5578"
       style="fill:#fcff43;fill-opacity:1;fill-rule:nonzero;stroke:none" />
  </g>
  <g
     id="g5580"
     style="display:inline">
    <path
       d="m 162.63456,84.337532 a 6.5659914,6.5659914 0 1 1 -13.13198,0 6.5659914,6.5659914 0 1 1 13.13198,0 z"
       transform="translate(21.213204,-30.809652)"
       id="path5582"
       style="fill:#fcff43;fill-opacity:1;fill-rule:nonzero;stroke:none" />
  </g>
  <g
     id="g5584"
     style="display:inline">
    <path
       d="m 162.63456,84.337532 a 6.5659914,6.5659914 0 1 1 -13.13198,0 6.5659914,6.5659914 0 1 1 13.13198,0 z"
       transform="translate(10.354064,-19.697974)"
       id="path5586"
       style="fill:#fcff43;fill-opacity:1;fill-rule:nonzero;stroke:none" />
  </g>
  <g
     id="g5588"
     style="display:inline">
    <path
       d="m 162.63456,84.337532 a 6.5659914,6.5659914 0 1 1 -13.13198,0 6.5659914,6.5659914 0 1 1 13.13198,0 z"
       transform="translate(-1.2626903,-30.809652)"
       id="path5590"
       style="fill:#fdff43;fill-opacity:1;fill-rule:nonzero;stroke:none" />
  </g>
  <g
     id="g5592"
     style="display:inline">
    <path
       d="m 162.63456,84.337532 a 6.5659914,6.5659914 0 1 1 -13.13198,0 6.5659914,6.5659914 0 1 1 13.13198,0 z"
       transform="matrix(1.1538462,0,0,1.1538462,-80.326554,-30.652674)"
       id="path5594"
       style="fill:#ff4c43;fill-opacity:1;fill-rule:nonzero;stroke:none" />
  </g>
  <g
     id="g5596"
     style="display:inline">
    <path
       d="m 31.936361,52.15511 5.782476,-9.738907 5.782475,9.738907 z"
       id="path5598"
       style="fill:#a1a1a1;fill-opacity:1;stroke:none" />
  </g>
  <g
     id="g5600"
     style="display:inline">
    <path
       d="m 45.783869,54.665921 9.738907,5.782477 -9.738907,5.782475 z"
       id="path5602"
       style="fill:#a1a1a1;fill-opacity:1;stroke:none" />
  </g>
  <g
     id="g5604"
     style="display:inline">
    <path
       d="M 42.968717,68.285173 37.186241,78.02408 31.403766,68.285173 z"
       id="path5606"
       style="fill:#a1a1a1;fill-opacity:1;stroke:none" />
  </g>
  <g
     id="g5608"
     style="display:inline">
    <path
       d="M 29.121209,66.078701 19.382302,60.296225 29.121209,54.51375 z"
       id="path5610"
       style="fill:#a1a1a1;fill-opacity:1;stroke:none" />
  </g>
  <g
     id="g5612"
     style="display:inline">
    <path
       d="m 57.831233,24.991071 0.252538,-4.798224 c 0,0 -22.98097,1.515229 -38.385796,10.354063 l 0,4.040611 c 17.172593,-8.081221 38.133258,-9.59645 38.133258,-9.59645 z"
       id="path5614"
       style="fill:#a1a1a1;fill-opacity:1;stroke:none" />
  </g>
  <g
     id="g5616"
     style="display:inline">
    <path
       d="m 140.40788,24.991071 -0.24921,-4.798224 c 0,0 22.67859,1.515229 37.88072,10.354063 l 0,4.040611 c -16.94664,-8.081221 -37.63151,-9.59645 -37.63151,-9.59645 z"
       id="path5618"
       style="fill:#a1a1a1;fill-opacity:1;stroke:none" />
  </g>
  <g
     id="layer6"
     style="display:inline">
    <path
       d="m 71.339286,108.44643 3.839286,23.125 -8.035715,-11.78572 z"
       id="path5562"
       style="fill:#a1a1a1;fill-opacity:1;stroke:none" />
    <path
       d="m 128.30358,107.58929 -3.8393,23.125 8.39286,-11.875 z"
       id="path5564"
       style="fill:#a1a1a1;fill-opacity:1;stroke:none" />
  </g>
</svg>
