<?xml version="1.0" encoding="UTF-8" standalone="no"?>
<!-- Created with Inkscape (http://www.inkscape.org/) -->

<svg
   xmlns:dc="http://purl.org/dc/elements/1.1/"
   xmlns:cc="http://creativecommons.org/ns#"
   xmlns:rdf="http://www.w3.org/1999/02/22-rdf-syntax-ns#"
   xmlns:svg="http://www.w3.org/2000/svg"
   xmlns="http://www.w3.org/2000/svg"
   xmlns:xlink="http://www.w3.org/1999/xlink"
   version="1.1"
   width="346.5"
   height="278.33481"
   id="svg2">
  <defs
     id="defs4">
    <linearGradient
       id="linearGradient4158">
      <stop
         id="stop4160"
         style="stop-color:#626262;stop-opacity:1"
         offset="0" />
      <stop
         id="stop4162"
         style="stop-color:#727272;stop-opacity:1"
         offset="1" />
    </linearGradient>
    <linearGradient
       id="linearGradient3806">
      <stop
         id="stop3808"
         style="stop-color:#090909;stop-opacity:1"
         offset="0" />
      <stop
         id="stop3810"
         style="stop-color:#292929;stop-opacity:1"
         offset="1" />
    </linearGradient>
    <linearGradient
       x1="197.27678"
       y1="36.130886"
       x2="197.27678"
       y2="256.11377"
       id="linearGradient3812"
       xlink:href="#linearGradient3806"
       gradientUnits="userSpaceOnUse" />
    <filter
       color-interpolation-filters="sRGB"
       id="filter4096">
      <feFlood
         id="feFlood4098"
         result="flood"
         flood-color="rgb(255,255,255)"
         flood-opacity="0.3" />
      <feComposite
         in2="SourceGraphic"
         operator="in"
         in="flood"
         result="composite1"
         id="feComposite4100" />
      <feGaussianBlur
         id="feGaussianBlur4102"
         result="blur"
         stdDeviation="5" />
      <feOffset
         id="feOffset4104"
         result="offset"
         dy="0"
         dx="0" />
      <feComposite
         in2="offset"
         operator="over"
         in="SourceGraphic"
         result="composite2"
         id="feComposite4106" />
    </filter>
    <filter
       color-interpolation-filters="sRGB"
       id="filter4108">
      <feFlood
         id="feFlood4110"
         result="flood"
         flood-color="rgb(255,255,255)"
         flood-opacity="0.3" />
      <feComposite
         in2="SourceGraphic"
         operator="in"
         in="flood"
         result="composite1"
         id="feComposite4112" />
      <feGaussianBlur
         id="feGaussianBlur4114"
         result="blur"
         stdDeviation="5" />
      <feOffset
         id="feOffset4116"
         result="offset"
         dy="0"
         dx="0" />
      <feComposite
         in2="offset"
         operator="over"
         in="SourceGraphic"
         result="composite2"
         id="feComposite4118" />
    </filter>
    <filter
       color-interpolation-filters="sRGB"
       id="filter4096-1">
      <feFlood
         id="feFlood4098-2"
         result="flood"
         flood-color="rgb(255,255,255)"
         flood-opacity="0.3" />
      <feComposite
         in2="SourceGraphic"
         operator="in"
         in="flood"
         result="composite1"
         id="feComposite4100-5" />
      <feGaussianBlur
         id="feGaussianBlur4102-9"
         result="blur"
         stdDeviation="5" />
      <feOffset
         id="feOffset4104-9"
         result="offset"
         dy="0"
         dx="0" />
      <feComposite
         in2="offset"
         operator="over"
         in="SourceGraphic"
         result="composite2"
         id="feComposite4106-0" />
    </filter>
    <radialGradient
       cx="256.07367"
       cy="160.59895"
       r="18.182745"
       fx="256.07367"
       fy="160.59895"
       id="radialGradient4164"
       xlink:href="#linearGradient4158-2"
       gradientUnits="userSpaceOnUse" />
    <radialGradient
       cx="256.07367"
       cy="160.59895"
       r="18.182745"
       fx="256.07367"
       fy="160.59895"
       id="radialGradient4164-4"
       xlink:href="#linearGradient4158-2"
       gradientUnits="userSpaceOnUse" />
    <linearGradient
       id="linearGradient4158-2">
      <stop
         id="stop4160-0"
         style="stop-color:#808080;stop-opacity:1"
         offset="0" />
      <stop
         id="stop4162-1"
         style="stop-color:#3e3e3e;stop-opacity:1"
         offset="1" />
    </linearGradient>
    <radialGradient
       cx="256.07367"
       cy="160.59895"
       r="18.182745"
       fx="256.07367"
       fy="160.59895"
       id="radialGradient4181"
       xlink:href="#linearGradient4158-2"
       gradientUnits="userSpaceOnUse" />
  </defs>
  <metadata
     id="metadata7">
    <rdf:RDF>
      <cc:Work
         rdf:about="">
        <dc:format>image/svg+xml</dc:format>
        <dc:type
           rdf:resource="http://purl.org/dc/dcmitype/StillImage" />
        <dc:title></dc:title>
      </cc:Work>
    </rdf:RDF>
  </metadata>
  <g
     transform="translate(-29.5625,5.86607)"
     id="layer2"
     style="display:inline" />
  <g
     transform="translate(-29.5625,-746.4961)"
     id="layer1"
     style="display:inline">
    <path
       d="M 126.375,36.9375 C 107.76341,36.808905 92.996269,44.318724 83.15625,50 c 0,4.30067 -0.375,1.361431 -0.375,6.4375 -5.725439,0 -43.21875,93.55197 -43.21875,162.125 0,38.21518 17.466463,43.90625 25.34375,43.90625 25.72436,0 44.19039,-22.19727 61.5,-36.875 21.45269,-18.19089 40.09608,-21.8432 76.40625,-21.84375 36.32246,-5.6e-4 54.94988,3.65018 76.40625,21.84375 17.30961,14.67739 35.80688,36.875 61.53125,36.875 7.87729,0 25.3125,-5.69197 25.3125,-43.90625 0,-68.57143 -37.49331,-162.125 -43.21875,-162.125 C 322.84375,51.36155 322.5,54.300569 322.5,50 311.25426,43.507266 293.5625,34.642857 271.0625,37.5 c -0.86727,1.50216 -0.30778,0.988364 -2.21875,3.59375 -4.41096,0.105386 -10.97701,3.469659 -16.53125,6.75 -10.28908,6.076745 -14.89042,8.938258 -49.5,8.9375 -34.58089,-7.58e-4 -39.21404,-2.862453 -49.5,-8.9375 -5.55424,-3.280419 -12.08903,-6.644612 -16.5,-6.75 -1.91097,-2.605447 -1.38272,-2.091555 -2.25,-3.59375 -2.8125,-0.357151 -5.5287,-0.544129 -8.1875,-0.5625 z"
       transform="translate(0,752.36217)"
       id="path2997"
       style="fill:url(#linearGradient3812);fill-opacity:1;stroke:none" />
    <path
       d="m 127.14286,93.928574 a 22.5,22.5 0 1 1 -45,0 22.5,22.5 0 1 1 45,0 z"
       transform="matrix(1.0310559,0,0,-1.0310559,-1.8212069,944.20779)"
       id="path3017"
       style="fill:#000000;fill-opacity:1;stroke:#000000;stroke-width:1;stroke-linecap:round;stroke-linejoin:miter;stroke-miterlimit:4;stroke-opacity:0;stroke-dasharray:none;stroke-dashoffset:0;filter:url(#filter4108)" />
    <path
       d="m 127.14286,93.928574 a 22.5,22.5 0 1 1 -45,0 22.5,22.5 0 1 1 45,0 z"
       transform="matrix(1.0465839,0,0,-1.0465839,133.69676,1000.3092)"
       id="path3017-5"
       style="fill:#000000;fill-opacity:1;stroke:#000000;stroke-width:1.00039756;stroke-linecap:round;stroke-linejoin:miter;stroke-miterlimit:4;stroke-opacity:0;stroke-dasharray:none;stroke-dashoffset:0;filter:url(#filter4096)" />
    <path
       d="m 268.21429,43.999909 2.76785,-6.626179 c 0,0 5.80358,-0.498731 8.57143,-0.498731 24.01074,0 43.0204,12.998732 43.0204,12.998732 l 0.44643,6.770395 c 0,0 -22.23227,-13.450422 -43.37728,-13.450422 -5.24424,0 -11.42883,0.806205 -11.42883,0.806205 z"
       transform="translate(0,752.36217)"
       id="path3815"
       style="opacity:0.35;fill:#b0b0b0;fill-opacity:1;stroke:none" />
    <path
       d="m 303.66071,119.55357 a 11.25,11.25 0 1 1 -22.5,0 11.25,11.25 0 1 1 22.5,0 z"
       transform="translate(0,752.36217)"
       id="path3854"
       style="opacity:0.35;fill:#7cff61;fill-opacity:1;stroke:none" />
    <path
       d="m 303.66071,119.55357 a 11.25,11.25 0 1 1 -22.5,0 11.25,11.25 0 1 1 22.5,0 z"
       transform="translate(25.000009,727.36216)"
       id="path3854-5"
       style="opacity:0.35;fill:#ff6161;fill-opacity:1;stroke:none;display:inline" />
    <path
       d="m 303.66071,119.55357 a 11.25,11.25 0 1 1 -22.5,0 11.25,11.25 0 1 1 22.5,0 z"
       transform="translate(-24.910705,727.36216)"
       id="path3854-5-1"
       style="opacity:0.35;fill:#6194ff;fill-opacity:1;stroke:none;display:inline" />
    <path
       d="m 303.66071,119.55357 a 11.25,11.25 0 1 1 -22.5,0 11.25,11.25 0 1 1 22.5,0 z"
       transform="translate(0.17858092,702.63002)"
       id="path3854-5-1-2"
       style="opacity:0.35;fill:#fffd61;fill-opacity:1;stroke:none;display:inline" />
    <path
       d="m 274.25641,160.59895 a 18.182745,18.182745 0 1 1 -36.36549,0 18.182745,18.182745 0 1 1 36.36549,0 z"
       transform="matrix(0.91666666,0,0,0.91666666,8.7125665,754.63374)"
       id="path4156"
       style="fill:url(#radialGradient4164);fill-opacity:1;stroke:none" />
    <path
       d="m 217.32144,97.23214 a 16.160715,16.160715 0 1 1 -32.32143,0 16.160715,16.160715 0 1 1 32.32143,0 z"
       transform="translate(-1.25,752.1836)"
       id="path4200"
       style="opacity:0.35;fill:#aed888;fill-opacity:1;stroke:none" />
    <path
       d="m 235.07505,842.66623 c 3.66635,0 6.63852,2.88971 6.63852,6.45435 0,3.56472 -2.97217,6.45443 -6.63852,6.45443 l -3.06922,0 c -3.66635,0 -6.63852,-2.88971 -6.63852,-6.45443 0,-3.56464 2.97217,-6.45435 6.63852,-6.45435 z"
       id="path4202"
       style="opacity:0.35;fill:#b0b0b0;fill-opacity:1;stroke:none" />
    <path
       d="m 167.15961,842.60421 c 3.66635,0 6.63852,2.88971 6.63852,6.45435 0,3.56472 -2.97217,6.45443 -6.63852,6.45443 l -3.06922,0 c -3.66635,0 -6.63852,-2.88971 -6.63852,-6.45443 0,-3.56464 2.97217,-6.45435 6.63852,-6.45435 z"
       id="path4202-1"
       style="opacity:0.35;fill:#b0b0b0;fill-opacity:1;stroke:none;display:inline" />
    <path
       d="m 274.25641,160.59895 a 18.182745,18.182745 0 1 1 -36.36549,0 18.182745,18.182745 0 1 1 36.36549,0 z"
       transform="matrix(0.91666666,0,0,0.91666666,-128.66817,700.08551)"
       id="path4156-5"
       style="fill:url(#radialGradient4181);fill-opacity:1;stroke:none;display:inline" />
    <path
       d="m 137.38864,796.11735 -2.76785,-6.62618 c 0,0 -5.80357,-0.49873 -8.57141,-0.49873 -24.01069,0 -43.02031,12.99873 -43.02031,12.99873 l -0.446429,6.7704 c 0,0 22.232219,-13.45042 43.377189,-13.45042 5.24423,0 11.42881,0.8062 11.42881,0.8062 z"
       id="path3815-1"
       style="opacity:0.35;fill:#b0b0b0;fill-opacity:1;stroke:none" />
    <path
       d="m 161.85664,910.84693 0,-18.23222 14.55401,9.11611 z"
       id="path4223"
       style="opacity:0.35;fill:#b0b0b0;fill-opacity:1;stroke:none" />
    <path
       d="m 139.50259,914.12384 18.23222,0 -9.11612,14.55401 z"
       id="path4223-8-1-6"
       style="opacity:0.35;fill:#b0b0b0;fill-opacity:1;stroke:none;display:inline" />
    <path
       d="m 135.71295,892.85959 0,18.23222 -14.55401,-9.11611 z"
       id="path4223-8-1"
       style="opacity:0.35;fill:#b0b0b0;fill-opacity:1;stroke:none;display:inline" />
    <path
       d="m 157.7348,889.44877 -18.23222,0 9.11612,-14.55401 z"
       id="path4223-8"
       style="opacity:0.35;fill:#b0b0b0;fill-opacity:1;stroke:none;display:inline" />
    <path
       d="m 88.65625,757.7461 -7.40625,0 0,14.4375 7.40625,0 m 51.75,0 7.40625,0 0,-14.4375 -7.40625,0"
       id="path4279"
       style="fill:none;stroke:#606060;stroke-width:2.5;stroke-linecap:butt;stroke-linejoin:miter;stroke-miterlimit:4;stroke-opacity:1;stroke-dasharray:none" />
    <path
       d="m 264.51875,757.7461 -7.40625,0 0,14.4375 7.40625,0 m 51.75,0 7.40625,0 0,-14.4375 -7.40625,0"
       id="path4279-4"
       style="fill:none;stroke:#606060;stroke-width:2.5;stroke-linecap:butt;stroke-linejoin:miter;stroke-miterlimit:4;stroke-opacity:1;stroke-dasharray:none;display:inline" />
    <rect
       width="6.1830359"
       height="11.919642"
       x="111.4975"
       y="758.99164"
       id="rect4336"
       style="fill:#b0b0b0;fill-opacity:1;stroke:none" />
    <rect
       width="6.1830359"
       height="11.919642"
       x="287.36343"
       y="758.99304"
       id="rect4336-4"
       style="fill:#b0b0b0;fill-opacity:1;stroke:none;display:inline" />
  </g>
</svg>
